# xmcd CD database file
#
# Track frame offsets:
#	187
#	13637
#	26552
#	38767
#	50314
#	63019
#	75189
#	89142
#	102287
#	115267
#	129457
#	142812
#	155367
#	167409
#	180997
#	192659
#	205784
#	218922
#	231694
#	245782
#
# Disc length: 3452 seconds
#
# Revision: 0
# Processed by: cddbd v1.4PL0 Copyright (c) Steve Scherf et al.
# Submitted via: CDex 1.50beta8
#
DISCID=0a0d7a14
DTITLE=Frankie Laine - That's My Desire +9
DYEAR=1989
DGENRE=Jazz
TTITLE0=SEPTEMBER IN THE RAIN - Frankie Laine
TTITLE1=I'M IN THE MOOD FOR LOVE - Frankie Laine
TTITLE2=EXACTLY LIKE YOU - Frankie Laine
TTITLE3='TILL WE MEET AGAIN - Frankie Laine
TTITLE4=THAT'S MY DESIRE - Frankie Laine
TTITLE5=BY THE RIVER ST. MARIE - Frankie Laine
TTITLE6=GEORGIA ON MY MIND - Frankie Laine
TTITLE7=BLACK AND BLUE - Frankie Laine
TTITLE8=YOU'RE WONDERFUL - Frankie Laine
TTITLE9=CHERIE, I LOVE YOU - Frankie Laine
TTITLE10=WE'LL BE TOGETHER AGAIN - Frankie Laine
TTITLE11=CRY OF THE WILD GOOSE - Frankie Laine
TTITLE12=MULE TRAIN - Frankie Laine
TTITLE13=THAT LUCKY OLD SUN - Frankie Laine
TTITLE14=ALL OF ME - Frankie Laine
TTITLE15=SHINE - Frankie Laine
TTITLE16=MUSIC MAESTRO PLEASE - Frankie Laine
TTITLE17=ON THE SUNNYSIDE OF THE STREET - Frankie Laine
TTITLE18=AIN'T MISBEHAVIN - Frankie Laine
TTITLE19=SOUTH OF THE BORDER - Frankie Laine
EXTD=YEAR: 1989
EXTT0=
EXTT1=
EXTT2=
EXTT3=
EXTT4=
EXTT5=
EXTT6=
EXTT7=
EXTT8=
EXTT9=
EXTT10=
EXTT11=
EXTT12=
EXTT13=
EXTT14=
EXTT15=
EXTT16=
EXTT17=
EXTT18=
EXTT19=
PLAYORDER=
